#!OML:ASF X:\für Bonn\!DataBase\2005_08_10_Bjorn_Final\c3d\bjorn.ASF
:FULLY-SPECIFIED
:DEGREES
157
root 0.563548 18.7027 1.48019 -192.192 -7.43151 179.401
lowerback 5.72435 3.86987 -0.877714
upperback 11.0027 3.92866 -2.09438
thorax 8.47669 1.38437 -1.74694
lowerneck -3.6673 3.31794 -3.87725
upperneck 3.13015 4.6448 -6.60838
head 1.67581 2.01785 -1.30582
rclavicle -5.1684e-015 9.54166e-015
rhumerus -33.5598 -0.833685 -77.1674
rradius 53.046
rwrist -3.29585
rhand -8.5121 20.4674
rfingers 7.12502
rthumb 17.416 -8.77235
lclavicle -5.1684e-015 9.54166e-015
lhumerus -6.03276 -34.6652 47.6714
lradius 76.3511
lwrist -14.7323
lhand -53.4801 -29.9887
lfingers 7.12502
lthumb -25.9256 -1.73658
rfemur -6.94225 3.4746 14.6878
rtibia 38.2302
rfoot -15.9965 17.8406
rtoes -4.47844
lfemur -27.9489 0.256615 -16.2669
ltibia 74.3086
lfoot 0.30736 -1.12647
ltoes -21.6715
158
root 0.523553 18.7226 1.58215 -191.115 -7.21153 179.277
lowerback 5.71962 3.8624 -0.941928
upperback 10.87 3.94061 -2.24083
thorax 8.33833 1.40098 -1.86568
lowerneck -3.90131 3.2027 -4.00003
upperneck 3.06722 4.50893 -6.41221
head 1.68521 1.9548 -1.22303
rclavicle 6.50026e-014 -3.97569e-014
rhumerus -33.4376 -1.93783 -78.166
rradius 51.5423
rwrist -2.80756
rhand -8.77351 20.648
rfingers 7.12502
rthumb 17.1644 -8.61385
lclavicle 6.50026e-014 -3.97569e-014
lhumerus -6.15966 -35.6889 48.1273
lradius 75.4049
lwrist -13.8944
lhand -53.5861 -30.3057
lfingers 7.12502
lthumb -26.0271 -2.06846
rfemur -8.46398 3.79514 14.388
rtibia 38.2556
rfoot -15.7643 17.5092
rtoes -4.24113
lfemur -27.1445 -0.186062 -16.0581
ltibia 73.5653
lfoot 0.224979 -1.36052
ltoes -22.3451
159
root 0.482632 18.7267 1.68428 -190.067 -7.02144 179.207
lowerback 5.73661 3.82943 -0.973169
upperback 10.7181 3.92029 -2.35842
thorax 8.16559 1.40495 -1.97336
lowerneck -4.04842 3.09979 -4.10333
upperneck 2.9979 4.38231 -6.23576
head 1.67896 1.89771 -1.15106
rclavicle 5.42682e-014 -5.48646e-014
rhumerus -33.3244 -2.97866 -79.0896
rradius 50.1601
rwrist -2.40016
rhand -8.91695 20.7826
rfingers 7.12502
rthumb 17.0264 -8.49118
lclavicle 5.42682e-014 -5.48646e-014
lhumerus -6.36201 -36.652 48.6695
lradius 74.4391
lwrist -13.325
lhand -53.7473 -30.5502
lfingers 7.12502
lthumb -26.1814 -2.3357
rfemur -10.0258 4.11321 14.1209
rtibia 38.373
rfoot -15.5454 17.2062
rtoes -3.79349
lfemur -26.3453 -0.646816 -15.8417
ltibia 72.7477
lfoot -0.0673078 -1.26991
ltoes -24.0859
160
root 0.439662 18.732 1.78555 -189.076 -6.81593 179.16
lowerback 5.79023 3.79202 -1.00719
upperback 10.552 3.893 -2.42946
thorax 7.95189 1.40439 -2.03184
lowerneck -4.09445 3.02264 -4.24679
upperneck 2.91057 4.28278 -6.05555
head 1.64865 1.85564 -1.07212
rclavicle 4.73108e-014 -1.11319e-014
rhumerus -33.2391 -3.97804 -79.8874
rradius 48.889
rwrist -1.95729
rhand -8.91216 20.814
rfingers 7.12502
rthumb 17.031 -8.45944
lclavicle 4.73108e-014 -1.11319e-014
lhumerus -6.67075 -37.5857 49.3082
lradius 73.5354
lwrist -12.8397
lhand -53.8498 -30.6483
lfingers 7.12502
lthumb -26.2795 -2.44845
rfemur -11.5521 4.39967 13.8576
rtibia 38.5251
rfoot -15.3544 16.9301
rtoes -3.57436
lfemur -25.4244 -1.11519 -15.6345
ltibia 71.7722
lfoot -0.482128 -0.877915
ltoes -25.3819
161
root 0.396929 18.7332 1.88594 -188.161 -6.62783 179.054
lowerback 5.90103 3.76034 -1.1181
upperback 10.4078 3.86287 -2.50772
thorax 7.72491 1.39316 -2.05819
lowerneck -4.12213 2.96028 -4.32855
upperneck 2.82222 4.20049 -5.88223
head 1.61712 1.82376 -1.00563
rclavicle -3.12092e-014 1.43125e-014
rhumerus -33.168 -4.91816 -80.6306
rradius 47.7559
rwrist -1.56334
rhand -8.81523 20.7473
rfingers 7.12502
rthumb 17.1243 -8.51808
lclavicle -3.12092e-014 1.43125e-014
lhumerus -6.96775 -38.4734 49.9055
lradius 72.7005
lwrist -12.3923
lhand -53.8021 -30.6542
lfingers 7.12502
lthumb -26.2339 -2.44754
rfemur -13.0129 4.69401 13.5157
rtibia 38.7308
rfoot -15.1877 16.6975
rtoes -3.37485
lfemur -24.3741 -1.61744 -15.5329
ltibia 70.6411
lfoot -1.03923 -0.164445
ltoes -26.3276
162
root 0.354888 18.7301 1.98478 -187.334 -6.45456 178.898
lowerback 6.00363 3.7675 -1.25958
upperback 10.383 3.86278 -2.61115
thorax 7.63653 1.38438 -2.09408
lowerneck -4.31514 2.87937 -4.31118
upperneck 2.71996 4.1024 -5.71286
head 1.61298 1.78413 -0.955309
rclavicle 3.47873e-014 1.51076e-014
rhumerus -32.9312 -5.9474 -81.3624
rradius 46.684
rwrist -1.26258
rhand -8.68889 20.6283
rfingers 7.12502
rthumb 17.2459 -8.62649
lclavicle 3.47873e-014 1.51076e-014
lhumerus -7.00182 -39.2636 50.351
lradius 71.8978
lwrist -11.9576
lhand -53.6557 -30.6105
lfingers 7.12502
lthumb -26.0937 -2.38304
rfemur -14.3948 4.9067 13.1024
rtibia 38.9833
rfoot -14.9505 16.5605
rtoes -3.17978
lfemur -23.1865 -2.11126 -15.5297
ltibia 69.3484
lfoot -1.72302 0.832009
ltoes -27.233
163
root 0.31263 18.7192 2.08096 -186.588 -6.29759 178.688
lowerback 6.13672 3.7642 -1.48628
upperback 10.3882 3.8379 -2.70716
thorax 7.55607 1.35294 -2.07674
lowerneck -4.40046 2.83316 -4.25235
upperneck 2.52727 4.0359 -5.58214
head 1.5631 1.76465 -0.925101
rclavicle -6.59965e-014 3.4191e-014
rhumerus -32.7177 -6.81403 -82.0414
rradius 45.7023
rwrist -1.01305
rhand -8.56984 20.4923
rfingers 7.12502
rthumb 17.3605 -8.75234
lclavicle -6.59965e-014 3.4191e-014
lhumerus -7.10498 -39.9846 50.8587
lradius 71.1168
lwrist -11.5164
lhand -53.4168 -30.4446
lfingers 7.12502
lthumb -25.8649 -2.1836
rfemur -15.7322 5.03727 12.616
rtibia 39.3391
rfoot -14.7302 16.5057
rtoes -3.20608
lfemur -21.8776 -2.63659 -15.6402
ltibia 67.91
lfoot -2.60736 1.92975
ltoes -28.0648
164
root 0.270592 18.6975 2.17681 -185.881 -6.15261 178.48
lowerback 6.287 3.75549 -1.73935
upperback 10.4019 3.80133 -2.77463
thorax 7.47102 1.31196 -2.01538
lowerneck -4.48085 2.77647 -4.04238
upperneck 2.50668 3.9575 -5.72873
head 1.57884 1.72395 -1.00747
rclavicle -2.28602e-014 -2.46493e-014
rhumerus -32.505 -7.56734 -82.6425
rradius 44.7701
rwrist -0.840238
rhand -8.5462 20.4122
rfingers 7.12502
rthumb 17.3832 -8.83047
lclavicle -2.28602e-014 -2.46493e-014
lhumerus -7.25287 -40.6663 51.4575
lradius 70.3485
lwrist -11.0518
lhand -53.0815 -30.2919
lfingers 7.12502
lthumb -25.5438 -1.98449
rfemur -17.0895 5.12135 12.1183
rtibia 39.8076
rfoot -14.5334 16.5311
rtoes -3.17551
lfemur -20.5457 -3.1235 -15.7874
ltibia 66.354
lfoot -3.70192 2.86643
ltoes -28.8326
165
root 0.226869 18.6692 2.27137 -185.159 -5.98459 178.274
lowerback 6.39235 3.74095 -1.98262
upperback 10.4101 3.76077 -2.84633
thorax 7.40683 1.27098 -1.96169
lowerneck -4.46657 2.73657 -3.8514
upperneck 2.45714 3.89382 -5.87935
head 1.5682 1.69266 -1.08906
rclavicle -3.77691e-014 -1.59028e-015
rhumerus -32.3335 -8.22391 -83.2112
rradius 43.9386
rwrist -0.681416
rhand -8.74975 20.5567
rfingers 7.12502
rthumb 17.1873 -8.70314
lclavicle -3.77691e-014 -1.59028e-015
lhumerus -7.45644 -41.3174 52.0576
lradius 69.634
lwrist -10.5412
lhand -52.7073 -30.0371
lfingers 7.12502
lthumb -25.1853 -1.67874
rfemur -18.5381 5.25066 11.6125
rtibia 40.4004
rfoot -14.4255 16.5372
rtoes -3.50624
lfemur -19.2426 -3.56878 -15.9787
ltibia 64.688
lfoot -5.06399 3.65278
ltoes -29.3321
166
root 0.182851 18.6371 2.36486 -184.481 -5.81359 178.097
lowerback 6.51288 3.73031 -2.21063
upperback 10.432 3.72155 -2.89259
thorax 7.34879 1.22988 -1.89021
lowerneck -4.25462 2.70057 -3.78845
upperneck 2.18942 3.81465 -5.87146
head 1.44513 1.66897 -1.10215
rclavicle -3.55825e-014 5.88403e-014
rhumerus -32.1762 -8.80588 -83.7226
rradius 43.1849
rwrist -0.64759
rhand -8.99978 20.7006
rfingers 7.12502
rthumb 16.9467 -8.58009
lclavicle -3.55825e-014 5.88403e-014
lhumerus -7.69851 -41.9546 52.6221
lradius 69.0522
lwrist -9.95571
lhand -52.3638 -29.9204
lfingers 7.12502
lthumb -24.8562 -1.51619
rfemur -19.9921 5.37701 11.1316
rtibia 41.094
rfoot -14.3689 16.5594
rtoes -3.88008
lfemur -17.9197 -3.94342 -16.1773
ltibia 62.9231
lfoot -6.67122 4.37715
ltoes -30.2408
